<mxfile host="Electron" modified="2023-09-11T05:18:47.018Z" agent="Mozilla/5.0 (Windows NT 10.0; Win64; x64) AppleWebKit/537.36 (KHTML, like Gecko) draw.io/21.6.8 Chrome/114.0.5735.289 Electron/25.5.0 Safari/537.36" etag="AOw4QTpIFbKBIokGHEOD" version="21.6.8" type="device">
  <diagram name="Страница — 1" id="4t-SJwL5McRlCFzantra">
    <mxGraphModel dx="983" dy="820" grid="1" gridSize="10" guides="1" tooltips="1" connect="1" arrows="1" fold="1" page="1" pageScale="1" pageWidth="827" pageHeight="1169" math="0" shadow="0">
      <root>
        <mxCell id="0" />
        <mxCell id="1" parent="0" />
        <mxCell id="iJofAyuOvvxYCgKNpQL2-3" value="" style="edgeStyle=orthogonalEdgeStyle;rounded=0;orthogonalLoop=1;jettySize=auto;html=1;" parent="1" target="iJofAyuOvvxYCgKNpQL2-2" edge="1">
          <mxGeometry relative="1" as="geometry">
            <mxPoint x="270" y="100" as="sourcePoint" />
          </mxGeometry>
        </mxCell>
        <mxCell id="DbkxUpFc9EmO3w75Wc3p-1" style="edgeStyle=orthogonalEdgeStyle;rounded=0;orthogonalLoop=1;jettySize=auto;html=1;exitX=0.5;exitY=1;exitDx=0;exitDy=0;entryX=0.5;entryY=0;entryDx=0;entryDy=0;" parent="1" source="iJofAyuOvvxYCgKNpQL2-2" target="iJofAyuOvvxYCgKNpQL2-6" edge="1">
          <mxGeometry relative="1" as="geometry" />
        </mxCell>
        <mxCell id="iJofAyuOvvxYCgKNpQL2-2" value="ввод x,z" style="shape=parallelogram;perimeter=parallelogramPerimeter;whiteSpace=wrap;html=1;fixedSize=1;" parent="1" vertex="1">
          <mxGeometry x="210" y="120" width="120" height="60" as="geometry" />
        </mxCell>
        <mxCell id="iJofAyuOvvxYCgKNpQL2-10" value="" style="edgeStyle=orthogonalEdgeStyle;rounded=0;orthogonalLoop=1;jettySize=auto;html=1;" parent="1" source="iJofAyuOvvxYCgKNpQL2-6" target="iJofAyuOvvxYCgKNpQL2-9" edge="1">
          <mxGeometry relative="1" as="geometry" />
        </mxCell>
        <mxCell id="iJofAyuOvvxYCgKNpQL2-6" value="writeln(&#39;Введите значение z:&#39;);" style="whiteSpace=wrap;html=1;" parent="1" vertex="1">
          <mxGeometry x="210" y="230" width="120" height="60" as="geometry" />
        </mxCell>
        <mxCell id="iJofAyuOvvxYCgKNpQL2-12" value="" style="edgeStyle=orthogonalEdgeStyle;rounded=0;orthogonalLoop=1;jettySize=auto;html=1;" parent="1" source="iJofAyuOvvxYCgKNpQL2-9" target="iJofAyuOvvxYCgKNpQL2-11" edge="1">
          <mxGeometry relative="1" as="geometry" />
        </mxCell>
        <mxCell id="iJofAyuOvvxYCgKNpQL2-9" value="&amp;nbsp;r:=1+(sqr(z)/3+sqr(z)/5)+arcsin(z/4);" style="whiteSpace=wrap;html=1;" parent="1" vertex="1">
          <mxGeometry x="190" y="360" width="160" height="60" as="geometry" />
        </mxCell>
        <mxCell id="iJofAyuOvvxYCgKNpQL2-15" value="" style="edgeStyle=orthogonalEdgeStyle;rounded=0;orthogonalLoop=1;jettySize=auto;html=1;" parent="1" source="iJofAyuOvvxYCgKNpQL2-11" target="iJofAyuOvvxYCgKNpQL2-13" edge="1">
          <mxGeometry relative="1" as="geometry" />
        </mxCell>
        <mxCell id="iJofAyuOvvxYCgKNpQL2-11" value="writeln(&#39;Результат вычислений функции при произвольно введенных данных = &#39;,r);" style="whiteSpace=wrap;html=1;" parent="1" vertex="1">
          <mxGeometry x="190" y="440" width="160" height="80" as="geometry" />
        </mxCell>
        <mxCell id="iJofAyuOvvxYCgKNpQL2-17" value="" style="edgeStyle=orthogonalEdgeStyle;rounded=0;orthogonalLoop=1;jettySize=auto;html=1;" parent="1" source="iJofAyuOvvxYCgKNpQL2-13" target="iJofAyuOvvxYCgKNpQL2-16" edge="1">
          <mxGeometry relative="1" as="geometry" />
        </mxCell>
        <mxCell id="iJofAyuOvvxYCgKNpQL2-13" value="вывод значения функции" style="shape=parallelogram;perimeter=parallelogramPerimeter;whiteSpace=wrap;html=1;fixedSize=1;" parent="1" vertex="1">
          <mxGeometry x="210" y="550" width="120" height="60" as="geometry" />
        </mxCell>
        <mxCell id="iJofAyuOvvxYCgKNpQL2-16" value="конец" style="ellipse;whiteSpace=wrap;html=1;" parent="1" vertex="1">
          <mxGeometry x="215" y="630" width="110" height="50" as="geometry" />
        </mxCell>
        <mxCell id="wmF-ZNAjaPbUTRF3VOxq-1" value="Начало программы" style="ellipse;whiteSpace=wrap;html=1;" vertex="1" parent="1">
          <mxGeometry x="200" y="30" width="140" height="70" as="geometry" />
        </mxCell>
      </root>
    </mxGraphModel>
  </diagram>
</mxfile>
